# xmcd CD database file
#
# Track frame offsets:
#	150
#	26619
#	53259
#	86626
#	121195
#	151954
#	173651
#	197478
#
# Disc length: 2928 seconds
#
# Revision: 0
# Processed by: cddbd v1.5.2PL0 Copyright (c) Steve Scherf et al.
# Submitted via: CDex 1.70beta2
#
DISCID=520b6e08
DTITLE=Escalandrum - V￩rtigo
DYEAR=2012
DGENRE=Jazz
TTITLE0=Ostinado
TTITLE1=V￩rtigo
TTITLE2=Insomnio
TTITLE3=Cumulus Nimbus
TTITLE4=Nocturno
TTITLE5=Pata de elefante
TTITLE6=Variaciones para sexteto
TTITLE7=Angulos
EXTD=YEAR: 2012
EXTT0=
EXTT1=
EXTT2=
EXTT3=
EXTT4=
EXTT5=
EXTT6=
EXTT7=
PLAYORDER=
